<svg xmlns="http://www.w3.org/2000/svg" viewBox="0 0 23.56 6.65"><g id="Layer_2" data-name="Layer 2"><g id="Layer_1-2" data-name="Layer 1"><path d="M16.82,6.58H15.17L13.94,2.63l-1.26,4H11.05L9.07.1h1.84L12,4,13.16.07h1.57L16,4,17,.1h1.81Z"/><path d="M23.38,5.5a1.66,1.66,0,0,1-.53.64,2.18,2.18,0,0,1-.78.38,3.35,3.35,0,0,1-1,.13,4.43,4.43,0,0,1-1.4-.24,4.5,4.5,0,0,1-1.36-.73l.78-1.2a4.53,4.53,0,0,0,1.05.57,2.83,2.83,0,0,0,1,.19,1,1,0,0,0,.58-.13.4.4,0,0,0,.19-.35v0a.34.34,0,0,0-.11-.25.91.91,0,0,0-.29-.19l-.43-.15L20.59,4c-.23-.07-.45-.15-.68-.24a2.24,2.24,0,0,1-.62-.36,2,2,0,0,1-.45-.54,1.63,1.63,0,0,1-.17-.8V2a2,2,0,0,1,.18-.87,1.88,1.88,0,0,1,.51-.64,2.12,2.12,0,0,1,.74-.4A3,3,0,0,1,21,0a4.17,4.17,0,0,1,1.24.2,4.56,4.56,0,0,1,1.16.54L22.72,2a5.45,5.45,0,0,0-.93-.43A2.5,2.5,0,0,0,21,1.4a.85.85,0,0,0-.5.13.39.39,0,0,0-.17.32v0a.34.34,0,0,0,.11.24,1.46,1.46,0,0,0,.29.19,2.67,2.67,0,0,0,.41.17l.5.17a7.23,7.23,0,0,1,.68.26,3.23,3.23,0,0,1,.63.36,1.92,1.92,0,0,1,.45.53,1.5,1.5,0,0,1,.18.76v0A2.2,2.2,0,0,1,23.38,5.5Z"/><path d="M6.17.1H3.33A3.33,3.33,0,0,1,0,3.42V6.61l5,0V4.48L7.21,6.65,10,3.89Z"/></g></g></svg>