<?xml version="1.0" encoding="utf-8"?>
<!-- Generator: Adobe Illustrator 25.4.1, SVG Export Plug-In . SVG Version: 6.00 Build 0)  -->
<svg version="1.1" id="Layer_1" xmlns="http://www.w3.org/2000/svg" xmlns:xlink="http://www.w3.org/1999/xlink" x="0px" y="0px"
	 viewBox="0 0 23.6 6.7" style="enable-background:new 0 0 23.6 6.7;" xml:space="preserve">
<style type="text/css">
	.st0{fill:#FFFFFF;}
</style>
<g id="Layer_2_00000054953165488647963050000015169623279130993323_">
	<g id="Layer_1-2">
		<path class="st0" d="M16.8,6.6h-1.6l-1.2-3.9l-1.3,4h-1.6l-2-6.5h1.8L12,4l1.2-3.9h1.6L16,4l1-3.9h1.8L16.8,6.6z"/>
		<path class="st0" d="M23.4,5.5c-0.1,0.3-0.3,0.5-0.5,0.6c-0.2,0.2-0.5,0.3-0.8,0.4c-0.3,0.1-0.7,0.1-1,0.1c-0.5,0-0.9-0.1-1.4-0.2
			c-0.5-0.2-1-0.4-1.4-0.7l0.8-1.2c0.3,0.2,0.7,0.4,1,0.6c0.3,0.1,0.7,0.2,1,0.2c0.2,0,0.4,0,0.6-0.1c0.1-0.1,0.2-0.2,0.2-0.3l0,0
			c0-0.1,0-0.2-0.1-0.2c-0.1-0.1-0.2-0.1-0.3-0.2l-0.4-0.2L20.6,4c-0.2-0.1-0.5-0.2-0.7-0.2c-0.2-0.1-0.4-0.2-0.6-0.4
			c-0.2-0.2-0.3-0.3-0.5-0.5c-0.1-0.2-0.2-0.5-0.2-0.8V2c0-0.3,0.1-0.6,0.2-0.9c0.1-0.2,0.3-0.5,0.5-0.6c0.2-0.2,0.5-0.3,0.7-0.4
			C20.4,0,20.7,0,21,0c0.4,0,0.8,0.1,1.2,0.2c0.4,0.1,0.8,0.3,1.2,0.5L22.7,2c-0.3-0.2-0.6-0.3-0.9-0.4c-0.3-0.1-0.5-0.2-0.8-0.2
			c-0.2,0-0.4,0-0.5,0.1c-0.1,0.1-0.2,0.2-0.2,0.3l0,0c0,0.1,0,0.2,0.1,0.2c0.1,0.1,0.2,0.1,0.3,0.2c0.1,0.1,0.3,0.1,0.4,0.2
			l0.5,0.2c0.2,0.1,0.5,0.2,0.7,0.3C22.5,3,22.8,3.1,23,3.2c0.2,0.1,0.3,0.3,0.5,0.5c0.1,0.2,0.2,0.5,0.2,0.8l0,0
			C23.6,4.9,23.5,5.2,23.4,5.5z"/>
		<path class="st0" d="M6.2,0.1H3.3c0,1.8-1.5,3.3-3.3,3.3v3.2h5V4.5l2.2,2.2L10,3.9L6.2,0.1z"/>
	</g>
</g>
</svg>
