<?xml version="1.0" encoding="utf-8"?>
<!-- Generator: Adobe Illustrator 25.4.1, SVG Export Plug-In . SVG Version: 6.00 Build 0)  -->
<svg version="1.1" id="Layer_1" xmlns="http://www.w3.org/2000/svg" xmlns:xlink="http://www.w3.org/1999/xlink" x="0px" y="0px"
	 viewBox="0 0 67.4 7.4" style="enable-background:new 0 0 67.4 7.4;" xml:space="preserve">
<style type="text/css">
	.st0{fill:#FFFFFF;}
</style>
<g id="Layer_2_00000134959678137900476750000012340717331727266694_">
	<g id="Layer_1-2">
		<path class="st0" d="M17.5,7h-1.6l-1.2-3.9L13.3,7h-1.6l-2-6.5h1.8l1,3.9l1.2-3.9h1.6l1.2,3.9l1.1-3.9h1.8L17.5,7z"/>
		<path class="st0" d="M26,4.2c0,0.1,0,0.1,0,0.2h-4.5c0.1,0.4,0.2,0.7,0.5,1c0.3,0.2,0.6,0.3,1,0.3c0.3,0,0.6,0,0.8-0.2
			c0.3-0.1,0.5-0.3,0.8-0.5l1,0.9c-0.3,0.4-0.7,0.7-1.1,0.9C24,7,23.5,7.1,23,7.1c-0.5,0-0.9-0.1-1.3-0.2c-0.8-0.3-1.4-0.9-1.8-1.7
			c-0.2-0.4-0.3-0.9-0.2-1.3l0,0c0-0.4,0.1-0.9,0.2-1.3c0.1-0.4,0.4-0.8,0.6-1.1c0.3-0.3,0.6-0.6,1-0.7c0.4-0.2,0.9-0.3,1.3-0.3
			c0.5,0,1,0.1,1.4,0.3c0.4,0.2,0.7,0.4,1,0.8c0.3,0.3,0.4,0.7,0.5,1.1C25.9,3,26,3.5,26,3.9l0,0C26,4,26,4.1,26,4.2z M23.8,2.3
			c-0.5-0.5-1.3-0.5-1.9,0c-0.3,0.3-0.4,0.6-0.5,1h2.8C24.2,2.9,24,2.5,23.8,2.3L23.8,2.3z"/>
		<path class="st0" d="M30.5,7V6.3c-0.2,0.2-0.5,0.4-0.8,0.6C29.4,7,29,7.1,28.6,7.1c-0.3,0-0.6,0-0.9-0.1c-0.3-0.1-0.5-0.2-0.7-0.4
			c-0.2-0.2-0.4-0.4-0.5-0.6c-0.1-0.3-0.2-0.5-0.2-0.8l0,0c0-0.3,0.1-0.6,0.2-0.9c0.1-0.3,0.3-0.5,0.5-0.6c0.2-0.2,0.5-0.3,0.8-0.4
			C28.3,3.1,28.6,3.1,29,3c0.3,0,0.6,0,0.9,0.1c0.2,0,0.5,0.1,0.7,0.2V3.2c0-0.3-0.1-0.7-0.4-0.9c-0.3-0.2-0.6-0.3-1-0.3
			c-0.3,0-0.6,0-0.9,0.1c-0.3,0.1-0.6,0.2-0.9,0.3L26.9,1c0.3-0.2,0.7-0.3,1.1-0.4c0.5-0.1,0.9-0.1,1.4-0.1c0.8-0.1,1.6,0.2,2.2,0.7
			c0.5,0.6,0.7,1.3,0.7,2V7H30.5z M30.5,4.4c-0.2-0.1-0.3-0.2-0.5-0.2c-0.2,0-0.4-0.1-0.6-0.1c-0.3,0-0.6,0.1-0.9,0.2
			c-0.2,0.1-0.3,0.4-0.3,0.7l0,0c0,0.2,0.1,0.4,0.3,0.6c0.2,0.1,0.5,0.2,0.7,0.2c0.4,0,0.7-0.1,1-0.3c0.3-0.2,0.4-0.5,0.4-0.8
			L30.5,4.4z"/>
		<path class="st0" d="M37,2.3c-0.5,0-1.1,0.2-1.4,0.5C35.2,3.4,35,4,35.1,4.6V7h-1.8V0.5h1.8v1.3c0.2-0.4,0.4-0.8,0.8-1.1
			c0.4-0.3,0.8-0.4,1.3-0.4L37,2.3L37,2.3z"/>
		<path class="st0" d="M42.2,6c-0.1,0.3-0.3,0.5-0.5,0.6c-0.2,0.2-0.5,0.3-0.8,0.4c-0.3,0.1-0.7,0.1-1,0.1c-0.5,0-0.9-0.1-1.4-0.2
			c-0.5-0.2-1-0.4-1.4-0.7L38,4.9c0.3,0.2,0.6,0.4,1,0.6c0.3,0.1,0.7,0.2,1,0.2c0.2,0,0.4,0,0.6-0.1c0.1-0.1,0.2-0.2,0.2-0.3l0,0
			c0-0.1,0-0.2-0.1-0.3c-0.1-0.1-0.2-0.1-0.3-0.2l-0.4-0.2l-0.5-0.2c-0.2-0.1-0.5-0.1-0.7-0.2c-0.2-0.1-0.4-0.2-0.6-0.4
			c-0.2-0.2-0.3-0.3-0.5-0.5c-0.1-0.2-0.2-0.5-0.2-0.8l0,0c0-0.3,0.1-0.6,0.2-0.9C37.8,1.4,38,1.2,38.2,1c0.2-0.2,0.5-0.3,0.8-0.4
			c0.3-0.1,0.6-0.1,0.9-0.1c0.4,0,0.8,0.1,1.2,0.2C41.6,0.8,42,1,42.3,1.2l-0.7,1.3c-0.3-0.2-0.6-0.3-1-0.5
			c-0.3-0.1-0.5-0.2-0.8-0.2c-0.2,0-0.4,0-0.5,0.1c-0.1,0.1-0.2,0.2-0.2,0.3l0,0c0,0.1,0,0.2,0.1,0.2c0.1,0.1,0.2,0.1,0.3,0.2
			L40,2.9l0.5,0.2c0.2,0.1,0.5,0.2,0.7,0.2c0.2,0.1,0.4,0.2,0.6,0.4C42,3.8,42.1,4,42.2,4.2c0.1,0.2,0.2,0.5,0.2,0.8V5
			C42.4,5.3,42.4,5.7,42.2,6z"/>
		<path class="st0" d="M46.1,7c-0.3,0.1-0.5,0.1-0.8,0.1c-0.3,0-0.5,0-0.8-0.1c-0.2-0.1-0.4-0.2-0.5-0.3c-0.2-0.2-0.3-0.4-0.4-0.6
			c-0.1-0.3-0.1-0.6-0.1-0.9V2.1h-0.8V0.5h0.8V0.4L45.3,0v0.5h1.5v1.6h-1.5v2.8c0,0.4,0.2,0.6,0.6,0.6c0.3,0,0.6-0.1,0.9-0.2v1.5
			C46.5,6.8,46.3,6.9,46.1,7z"/>
		<path class="st0" d="M53.9,5.1c-0.2,0.4-0.4,0.8-0.7,1.1c-0.3,0.3-0.7,0.6-1.1,0.7c-0.4,0.2-0.9,0.3-1.4,0.3
			c-0.5,0-0.9-0.1-1.4-0.3c-0.4-0.2-0.8-0.4-1.1-0.7c-0.3-0.3-0.6-0.7-0.7-1.1c-0.2-0.4-0.3-0.9-0.3-1.3l0,0c0-0.4,0.1-0.9,0.3-1.3
			c0.2-0.4,0.4-0.8,0.7-1.1c0.3-0.3,0.7-0.6,1.1-0.7c0.4-0.2,0.9-0.3,1.4-0.3c0.5,0,0.9,0.1,1.4,0.3c0.4,0.2,0.8,0.4,1.1,0.7
			c0.3,0.3,0.5,0.7,0.7,1c0.2,0.4,0.3,0.9,0.3,1.3l0,0C54.2,4.2,54.1,4.7,53.9,5.1z M52.4,3.8c0-0.2,0-0.5-0.1-0.7
			c-0.1-0.2-0.2-0.4-0.3-0.6c-0.1-0.2-0.3-0.3-0.5-0.4C51.2,2,50.9,2,50.7,2c-0.2,0-0.5,0-0.7,0.1c-0.2,0.1-0.4,0.2-0.5,0.4
			c-0.1,0.2-0.3,0.4-0.3,0.6C49.1,3.3,49,3.5,49,3.8l0,0c0,0.2,0,0.5,0.1,0.7c0.1,0.2,0.2,0.4,0.3,0.6c0.1,0.2,0.3,0.3,0.5,0.4
			c0.2,0.1,0.5,0.2,0.7,0.2c0.2,0,0.5,0,0.7-0.1c0.4-0.2,0.7-0.5,0.8-0.9C52.3,4.3,52.4,4,52.4,3.8L52.4,3.8z"/>
		<path class="st0" d="M59.5,6.8c-0.5,0.2-1,0.4-1.6,0.3c-0.5,0-0.9-0.1-1.3-0.3c-0.4-0.2-0.8-0.4-1.1-0.7c-0.3-0.3-0.5-0.7-0.7-1.1
			c-0.2-0.4-0.3-0.8-0.2-1.3l0,0c0-0.4,0.1-0.9,0.2-1.3c0.2-0.4,0.4-0.8,0.7-1.1c0.3-0.3,0.7-0.6,1.1-0.7C57,0.5,57.5,0.4,58,0.4
			c0.5,0,1,0.1,1.5,0.3c0.4,0.2,0.8,0.5,1.1,0.8l-1.2,1.2c-0.2-0.2-0.4-0.4-0.6-0.5C58.5,2.1,58.3,2,58,2c-0.2,0-0.4,0-0.6,0.1
			c-0.2,0.1-0.4,0.2-0.5,0.4c-0.1,0.2-0.2,0.4-0.3,0.6c-0.1,0.2-0.1,0.4-0.1,0.7l0,0c0,0.2,0,0.5,0.1,0.7c0.1,0.2,0.2,0.4,0.3,0.6
			c0.1,0.2,0.3,0.3,0.5,0.4c0.2,0.1,0.4,0.1,0.7,0.1c0.3,0,0.6-0.1,0.8-0.2c0.2-0.1,0.5-0.3,0.7-0.5l1.1,1.1
			C60.3,6.3,59.9,6.6,59.5,6.8z"/>
		<path class="st0" d="M65.3,7l-1.7-2.7L63,5v2h-1.8V0.4L63,0v2.9l2.1-2.3h2.2l-2.4,2.5L67.4,7H65.3z"/>
		<path class="st0" d="M6.4,0.5h-3C3.4,2.4,1.9,4,0,4v3.3h5.2V5.1l2.3,2.3l2.9-2.9L6.4,0.5z"/>
	</g>
</g>
</svg>
