<svg xmlns="http://www.w3.org/2000/svg" viewBox="0 0 67.4 7.36"><g id="Layer_2" data-name="Layer 2"><g id="Layer_1-2" data-name="Layer 1"><path d="M17.47,7H15.82L14.59,3.07,13.33,7H11.7L9.72.54h1.84l1,3.9L13.81.52h1.57L16.6,4.45,17.66.54h1.81Z"/><path d="M26,4.17a2,2,0,0,1,0,.22H21.49a1.6,1.6,0,0,0,.54,1,1.66,1.66,0,0,0,1,.31,2.14,2.14,0,0,0,.82-.15A2.82,2.82,0,0,0,24.62,5l1,.93a3.25,3.25,0,0,1-1.1.88A3.44,3.44,0,0,1,23,7.12a3.67,3.67,0,0,1-1.34-.24,3.11,3.11,0,0,1-1.77-1.74,3.42,3.42,0,0,1-.25-1.35v0a3.52,3.52,0,0,1,.23-1.3,3.36,3.36,0,0,1,.65-1.06,2.92,2.92,0,0,1,1-.72A3,3,0,0,1,22.86.42a3.16,3.16,0,0,1,1.39.29,2.87,2.87,0,0,1,1,.77A3.21,3.21,0,0,1,25.8,2.6,4.42,4.42,0,0,1,26,3.91v0A1.62,1.62,0,0,1,26,4.17Zm-2.2-1.91a1.34,1.34,0,0,0-1.85,0,1.91,1.91,0,0,0-.47,1h2.75A1.8,1.8,0,0,0,23.78,2.26Z"/><path d="M30.52,7V6.28a2.48,2.48,0,0,1-.8.59,2.61,2.61,0,0,1-1.14.22A3,3,0,0,1,27.72,7a2.06,2.06,0,0,1-.7-.38A1.7,1.7,0,0,1,26.55,6a1.86,1.86,0,0,1-.18-.84v0a2.14,2.14,0,0,1,.19-.91,1.76,1.76,0,0,1,.54-.64,2.51,2.51,0,0,1,.81-.37A3.87,3.87,0,0,1,29,3.05a4.33,4.33,0,0,1,.86.07,5.86,5.86,0,0,1,.72.19v-.1a1.1,1.1,0,0,0-.35-.88,1.54,1.54,0,0,0-1-.3,4.19,4.19,0,0,0-.93.09,6.74,6.74,0,0,0-.85.26L26.92,1A6.91,6.91,0,0,1,28,.61,6.14,6.14,0,0,1,29.42.47a2.84,2.84,0,0,1,2.18.73,2.86,2.86,0,0,1,.69,2V7Zm0-2.59A2.74,2.74,0,0,0,30,4.21a2.59,2.59,0,0,0-.63-.07,1.66,1.66,0,0,0-.93.23.75.75,0,0,0-.33.66v0a.69.69,0,0,0,.27.58,1.18,1.18,0,0,0,.72.2,1.61,1.61,0,0,0,1-.31,1,1,0,0,0,.39-.81Z"/><path d="M37.05,2.33a1.86,1.86,0,0,0-1.43.55A2.42,2.42,0,0,0,35.1,4.6V7H33.27V.54H35.1v1.3A2.68,2.68,0,0,1,35.85.78a1.88,1.88,0,0,1,1.3-.36V2.33Z"/><path d="M42.23,6a1.71,1.71,0,0,1-.52.64,2.52,2.52,0,0,1-.79.38,3.71,3.71,0,0,1-1,.12,4.32,4.32,0,0,1-1.4-.23,4.42,4.42,0,0,1-1.36-.74L38,4.92A4.23,4.23,0,0,0,39,5.5a2.73,2.73,0,0,0,1,.19,1,1,0,0,0,.59-.13.42.42,0,0,0,.18-.35v0a.34.34,0,0,0-.11-.26.9.9,0,0,0-.29-.18l-.43-.15-.5-.16a6.81,6.81,0,0,1-.68-.23,2.39,2.39,0,0,1-.62-.36,1.87,1.87,0,0,1-.45-.55,1.71,1.71,0,0,1-.17-.79v0a1.86,1.86,0,0,1,.19-.87,1.89,1.89,0,0,1,.5-.65A2.27,2.27,0,0,1,39,.58a3.05,3.05,0,0,1,.92-.13,4.15,4.15,0,0,1,1.24.19,5,5,0,0,1,1.16.55l-.69,1.26A6.54,6.54,0,0,0,40.64,2a2.36,2.36,0,0,0-.8-.16.8.8,0,0,0-.51.13.38.38,0,0,0-.17.31v0a.31.31,0,0,0,.11.23,1.12,1.12,0,0,0,.29.19l.41.18.5.17a7.24,7.24,0,0,1,.69.25,2.91,2.91,0,0,1,.62.37,1.82,1.82,0,0,1,.46.53,1.49,1.49,0,0,1,.18.75V5A2.2,2.2,0,0,1,42.23,6Z"/><path d="M46.11,7a2.78,2.78,0,0,1-.8.1A2.93,2.93,0,0,1,44.55,7,1.26,1.26,0,0,1,44,6.67a1.56,1.56,0,0,1-.39-.59,2.7,2.7,0,0,1-.13-.93V2.1h-.77V.54h.77V.45L45.26,0V.54h1.51V2.1H45.26V4.85c0,.42.2.62.59.62a1.87,1.87,0,0,0,.9-.22V6.71A3.08,3.08,0,0,1,46.11,7Z"/><path d="M53.91,5.07a3.14,3.14,0,0,1-.73,1.06,3.28,3.28,0,0,1-1.1.72,3.57,3.57,0,0,1-1.4.27,3.72,3.72,0,0,1-1.38-.26,3.27,3.27,0,0,1-1.09-.71,3.36,3.36,0,0,1-.73-1.05,3.19,3.19,0,0,1-.26-1.31v0a3.15,3.15,0,0,1,.26-1.3,3.29,3.29,0,0,1,.73-1.06A3.23,3.23,0,0,1,49.32.69,3.48,3.48,0,0,1,50.71.42a3.72,3.72,0,0,1,1.38.26,3.41,3.41,0,0,1,1.1.71,3.33,3.33,0,0,1,.72,1.05,3.2,3.2,0,0,1,.27,1.31v0A3.15,3.15,0,0,1,53.91,5.07Zm-1.53-1.3a1.91,1.91,0,0,0-.12-.68,1.71,1.71,0,0,0-.35-.56,1.5,1.5,0,0,0-.54-.39A1.58,1.58,0,0,0,50.68,2a1.75,1.75,0,0,0-.7.14,1.52,1.52,0,0,0-.52.38,1.84,1.84,0,0,0-.33.56,1.9,1.9,0,0,0-.11.68v0a1.91,1.91,0,0,0,.12.68,1.68,1.68,0,0,0,.34.56A1.59,1.59,0,0,0,50,5.4a1.52,1.52,0,0,0,.69.15,1.71,1.71,0,0,0,.7-.14,1.6,1.6,0,0,0,.85-.94,1.91,1.91,0,0,0,.12-.68Z"/><path d="M59.5,6.79a3.22,3.22,0,0,1-1.56.33,3.26,3.26,0,0,1-1.33-.27,3.18,3.18,0,0,1-1.07-.71,3.35,3.35,0,0,1-.69-1.06,3.26,3.26,0,0,1-.25-1.29v0a3.34,3.34,0,0,1,.25-1.3,3.47,3.47,0,0,1,.69-1.06A3.06,3.06,0,0,1,56.61.69,3.34,3.34,0,0,1,58,.42a3.5,3.5,0,0,1,1.51.29,3.54,3.54,0,0,1,1.06.79L59.42,2.7a2.92,2.92,0,0,0-.64-.51A1.61,1.61,0,0,0,58,2a1.39,1.39,0,0,0-.63.14,1.55,1.55,0,0,0-.5.38,1.82,1.82,0,0,0-.32.56,1.9,1.9,0,0,0-.11.68v0a2,2,0,0,0,.11.7,1.84,1.84,0,0,0,.33.56,1.52,1.52,0,0,0,.52.38,1.6,1.6,0,0,0,.67.14,1.72,1.72,0,0,0,.8-.19,3.24,3.24,0,0,0,.67-.5l1.07,1.08A4,4,0,0,1,59.5,6.79Z"/><path d="M65.31,7,63.63,4.35,63,5V7H61.17V.45L63,0V2.88L65.13.54h2.19L64.87,3.07,67.4,7Z"/><path d="M6.42.54h-3A3.46,3.46,0,0,1,0,4V7.32l5.25,0V5.1L7.51,7.36l2.86-2.87Z"/></g></g></svg>